<svg xmlns="http://www.w3.org/2000/svg" viewBox="0 0 512 512" xml:space="preserve" enable-background="new 0 0 512 512"><path d="M11 161c-5.523 0-10 4.477-10 10v170c0 5.523 4.477 10 10 10s10-4.477 10-10V171c0-5.523-4.477-10-10-10zM51 211c-5.523 0-10 4.477-10 10v70c0 5.523 4.477 10 10 10s10-4.477 10-10v-70c0-5.523-4.477-10-10-10zM461 211c-5.523 0-10 4.477-10 10v70c0 5.523 4.477 10 10 10s10-4.477 10-10v-70c0-5.523-4.477-10-10-10zM501 161c-5.523 0-10 4.477-10 10v170c0 5.523 4.477 10 10 10s10-4.477 10-10V171c0-5.523-4.477-10-10-10zM401 201h-30v-85C371 52.589 319.411 1 256 1S141 52.589 141 116v85h-30c-5.523 0-10 4.477-10 10v85c0 82.107 64.176 149.496 145 154.668V491h-35c-5.523 0-10 4.477-10 10s4.477 10 10 10h90c5.523 0 10-4.477 10-10s-4.477-10-10-10h-35v-40.332c80.824-5.173 145-72.561 145-154.668v-85c0-5.523-4.477-10-10-10zm-200-80h110c5.523 0 10 4.477 10 10s-4.477 10-10 10H201c-5.523 0-10-4.477-10-10s4.477-10 10-10zm0 50h110c5.523 0 10 4.477 10 10s-4.477 10-10 10H201c-5.523 0-10-4.477-10-10s4.477-10 10-10zm0 50h110c5.523 0 10 4.477 10 10s-4.477 10-10 10H201c-5.523 0-10-4.477-10-10s4.477-10 10-10zm0 50h110c5.523 0 10 4.477 10 10s-4.477 10-10 10H201c-5.523 0-10-4.477-10-10s4.477-10 10-10zm190 25c0 74.439-60.561 135-135 135s-135-60.561-135-135v-75h20v75c0 63.411 51.589 115 115 115s115-51.589 115-115v-75h20v75z" fill="#1bd44a" class="fill-000000"></path></svg>