<svg width="115" height="50" viewBox="0 0 115 50" fill="none" xmlns="http://www.w3.org/2000/svg">
<path d="M12.207 34.4219L15.3906 40.125H2.67578V12.0391H7.8125V40.0859C9.54427 38.7188 11.0091 36.8307 12.207 34.4219ZM23.2227 12.0391V40.125H18.0469V12.0391H23.2227ZM43.5156 35.0273L46.2305 40.125H31.9336C30.6576 38.8359 29.4987 36.9089 28.457 34.3438C27.4154 31.8047 26.8945 29.0833 26.8945 26.1797C26.8945 23.0026 27.4154 20.1641 28.457 17.6641C29.4987 15.1641 30.5794 13.2891 31.6992 12.0391H45.9961L43.6914 17.0781C41.8294 14.3828 40.2344 12.7878 38.9062 12.293C37.3047 13.2305 35.7943 14.9753 34.375 17.5273C32.9297 20.1185 32.207 22.9635 32.207 26.0625C32.207 29.2526 32.9622 32.1693 34.4727 34.8125C35.2279 36.1276 35.9701 37.2018 36.6992 38.0352C37.4284 38.8685 38.1641 39.4674 38.9062 39.832C39.6094 39.5195 40.332 38.9792 41.0742 38.2109C41.8164 37.4427 42.6302 36.3815 43.5156 35.0273ZM54.375 12.2148V39.9883C55.599 39.181 56.6927 38.2174 57.6562 37.0977C58.6328 35.9388 59.4792 34.4023 60.1953 32.4883C60.9115 30.5742 61.2695 28.4453 61.2695 26.1016C61.2695 22.9115 60.5664 20.0469 59.1602 17.5078C57.7409 14.9688 56.1458 13.2044 54.375 12.2148ZM61.7188 40.125H49.1992V12.0391H61.7188C64.8568 16.2057 66.4258 20.8932 66.4258 26.1016C66.4258 31.3359 64.8568 36.0104 61.7188 40.125ZM80.5273 39.9492C82.3893 38.5951 83.9453 36.7005 85.1953 34.2656C86.4453 31.8177 87.0703 29.1289 87.0703 26.1992C87.0703 23.1914 86.4648 20.4766 85.2539 18.0547C84.668 16.8828 83.9583 15.7891 83.125 14.7734C82.3047 13.7578 81.4388 12.8984 80.5273 12.1953C76.1003 15.724 73.8867 20.3854 73.8867 26.1797C73.8867 29.0312 74.4987 31.6875 75.7227 34.1484C76.9596 36.6484 78.5612 38.582 80.5273 39.9492ZM87.4414 40.125H73.6133C70.3971 35.8932 68.7891 31.1797 68.7891 25.9844C68.7891 20.8021 70.3971 16.1536 73.6133 12.0391H87.4414C90.6185 16.3229 92.207 20.9323 92.207 25.8672C92.207 31.0625 90.6185 35.8151 87.4414 40.125ZM111.094 35.0273L113.809 40.125H99.5117C98.2357 38.8359 97.0768 36.9089 96.0352 34.3438C94.9935 31.8047 94.4727 29.0833 94.4727 26.1797C94.4727 23.0026 94.9935 20.1641 96.0352 17.6641C97.0768 15.1641 98.1576 13.2891 99.2773 12.0391H113.574L111.27 17.0781C109.408 14.3828 107.812 12.7878 106.484 12.293C104.883 13.2305 103.372 14.9753 101.953 17.5273C100.508 20.1185 99.7852 22.9635 99.7852 26.0625C99.7852 29.2526 100.54 32.1693 102.051 34.8125C102.806 36.1276 103.548 37.2018 104.277 38.0352C105.007 38.8685 105.742 39.4674 106.484 39.832C107.188 39.5195 107.91 38.9792 108.652 38.2109C109.395 37.4427 110.208 36.3815 111.094 35.0273Z" fill="black"/>
<circle cx="20.5" cy="5.625" r="4.75" fill="#154AD1"/>
</svg>
