<svg width="1240" height="70" viewBox="0 0 1240 70" fill="none" xmlns="http://www.w3.org/2000/svg">
<path d="M353.24 22.89C348.28 22.89 343.73 23.905 340.16 25.5967C336.59 23.905 332.04 22.89 327.08 22.89C322.12 22.89 317.57 23.905 314 25.5967C310.43 23.905 305.88 22.89 300.92 22.89C295.96 22.89 291.41 23.905 287.84 25.5967C284.27 23.905 279.72 22.89 274.76 22.89C263.295 22.89 254 28.3121 254 35C254 41.6879 263.295 47.11 274.76 47.11C279.72 47.11 284.27 46.095 287.84 44.4033C291.41 46.095 295.96 47.11 300.92 47.11C305.88 47.11 310.43 46.095 314 44.4033C317.57 46.095 322.12 47.11 327.08 47.11C332.04 47.11 336.59 46.095 340.16 44.4033C343.73 46.095 348.28 47.11 353.24 47.11C364.705 47.11 374 41.6879 374 35C374 28.3121 364.705 22.89 353.24 22.89ZM340.16 40.4425C338.28 38.9083 337.17 37.03 337.17 35C337.17 32.97 338.28 31.0917 340.16 29.5575C342.04 31.0917 343.15 32.97 343.15 35C343.15 37.03 342.04 38.9083 340.16 40.4425ZM314 40.4425C312.12 38.9083 311.01 37.03 311.01 35C311.01 32.97 312.12 31.0917 314 29.5575C315.88 31.0917 316.99 32.97 316.99 35C316.99 37.03 315.88 38.9083 314 40.4425ZM287.84 40.4425C285.96 38.9083 284.85 37.03 284.85 35C284.85 32.97 285.96 31.0917 287.84 29.5575C289.72 31.0917 290.83 32.97 290.83 35C290.83 37.03 289.72 38.9083 287.84 40.4425ZM258.69 35C258.69 29.8229 265.885 25.6258 274.76 25.6258C278.44 25.6258 281.83 26.3492 284.54 27.5654C281.8 29.6158 280.16 32.1971 280.16 35C280.16 37.8029 281.8 40.3842 284.54 42.4346C281.83 43.6479 278.44 44.3742 274.76 44.3742C265.885 44.3742 258.69 40.1771 258.69 35ZM291.14 42.4346C293.88 40.3842 295.52 37.8029 295.52 35C295.52 32.1971 293.88 29.6158 291.14 27.5654C293.85 26.3521 297.24 25.6258 300.92 25.6258C304.6 25.6258 307.99 26.3492 310.7 27.5654C307.955 29.6188 306.32 32.1971 306.32 35C306.32 37.8029 307.96 40.3842 310.7 42.4346C307.99 43.6479 304.6 44.3742 300.92 44.3742C297.24 44.3742 293.85 43.6508 291.14 42.4346ZM317.3 42.4346C320.045 40.3813 321.68 37.8029 321.68 35C321.68 32.1971 320.04 29.6158 317.3 27.5625C320.01 26.3492 323.4 25.6229 327.08 25.6229C330.76 25.6229 334.15 26.3463 336.86 27.5625C334.115 29.6158 332.48 32.1942 332.48 34.9971C332.48 37.8 334.12 40.3813 336.86 42.4317C334.15 43.645 330.76 44.3713 327.08 44.3713C323.4 44.3742 320.01 43.6508 317.3 42.4346ZM353.24 44.3742C349.56 44.3742 346.17 43.6508 343.46 42.4346C346.2 40.3813 347.84 37.8029 347.84 35C347.84 32.1971 346.2 29.6158 343.46 27.5654C346.17 26.3521 349.56 25.6258 353.24 25.6258C362.115 25.6258 369.31 29.8229 369.31 35C369.31 40.1771 362.115 44.3742 353.24 44.3742Z" fill="black"/>
<g clip-path="url(#clip0_2_157)">
<path d="M452 5C435.433 5 422 18.4325 422 35C422 51.5675 435.433 65 452 65C468.568 65 482 51.5675 482 35C482 18.4325 468.568 5 452 5ZM439.405 24.2C441.29 24.2 442.747 25.5725 442.917 27.2C443.09 28.6575 442.49 29.9425 440.862 30.715C440.005 31.1425 439.663 31.145 439.49 30.8875C439.405 30.715 439.49 30.545 439.663 30.3725C441.205 29.0875 441.205 28.0575 441.032 26.6025C440.948 25.6575 440.263 25.0575 439.575 25.0575C436.575 25.0575 432.29 31.7425 432.89 36.63C433.148 38.515 434.262 40.745 436.662 40.745C437.432 40.745 438.288 40.4875 439.062 40.145C440.312 39.485 441.06 38.97 441.805 38.145C441.622 35.9325 443.565 33.03 446.432 33.03C447.72 33.03 448.747 33.5425 448.833 34.4875C449.002 35.7725 447.89 35.9425 447.548 35.9425C447.205 35.9425 446.602 35.8575 446.602 35.5175C446.517 35.1725 447.375 35.3425 447.29 34.5725C447.203 34.0575 446.69 33.8875 446.175 33.8875C444.375 33.8875 443.347 36.3725 443.602 37.915C443.69 38.6025 444.033 39.2875 444.72 39.2875C445.233 39.2875 446.005 38.5125 446.263 37.4C446.432 36.63 447.12 36.115 447.72 36.115C447.975 36.115 448.145 36.2 448.233 36.5425V36.8875C448.148 37.23 447.89 38.2575 447.977 38.515C447.977 38.6875 448.062 38.9425 448.403 38.9425C448.632 38.9425 449.493 38.4925 450.345 37.795C450.638 36.32 450.977 34.55 450.977 34.4025C451.062 33.8025 451.32 33.2025 452.52 33.2025C452.778 33.2025 452.948 33.2875 453.033 33.63V33.975L452.693 35.5175C453.805 34.06 455.435 33.0325 456.463 33.0325C456.892 33.0325 457.235 33.2875 457.235 33.7175C457.235 33.975 457.235 34.4025 457.062 34.8325C456.72 35.775 456.29 37.2325 456.033 38.5175C456.033 38.86 456.12 39.2025 456.55 39.2025C456.978 39.2025 458.263 38.6875 459.29 37.3175L459.308 37.3075C459.303 37.1375 459.29 36.9725 459.29 36.8025C459.29 35.775 459.378 34.9175 459.55 34.3175C459.72 33.6325 460.577 33.0325 461.092 33.0325C461.35 33.0325 461.605 33.205 461.605 33.46C461.605 33.5475 461.605 33.7175 461.52 33.8025C461.177 34.9175 460.92 35.945 460.92 36.975C460.92 37.575 461.005 38.43 461.175 38.945C461.175 39.03 461.263 39.1175 461.35 39.1175C461.52 39.1175 462.72 38.005 463.575 36.5475C462.805 36.0325 462.375 35.175 462.375 34.1475C462.375 32.3475 463.49 31.405 464.52 31.405C465.377 31.405 466.062 32.005 466.062 33.205C466.062 33.975 465.805 34.83 465.377 35.605H465.632C465.904 35.6138 466.175 35.565 466.427 35.4615C466.678 35.3581 466.905 35.2025 467.093 35.005C467.171 34.8751 467.288 34.7729 467.427 34.7125C468.265 33.65 469.502 32.8625 470.952 32.8625C472.153 32.8625 473.263 33.375 473.35 34.3175C473.52 35.605 472.405 35.8625 472.062 35.8625L472.058 35.8575C471.713 35.8575 471.115 35.77 471.115 35.4275C471.115 35.085 471.888 35.2575 471.8 34.4875C471.715 33.9725 471.2 33.8 470.685 33.8C468.97 33.8 467.86 36.0275 468.115 37.8275C468.2 38.515 468.543 39.285 469.228 39.285C469.743 39.285 470.515 38.515 470.857 37.4C471.027 36.715 471.715 36.115 472.315 36.115C472.572 36.115 472.74 36.2 472.827 36.5425C472.827 36.715 472.827 37.0575 472.485 38.1725C472.06 38.9425 472.057 39.3725 472.142 39.715C472.227 40.4 472.57 40.915 472.915 41.1725C473 41.2575 473.085 41.4275 473.085 41.4275C473.085 41.6 473 41.7725 472.743 41.7725C472.658 41.7725 472.573 41.7725 472.485 41.685C471.2 41.1725 470.685 40.315 470.513 39.4575C470 40.0575 469.4 40.4 468.712 40.4C467.6 40.4 466.487 39.3725 466.312 38.085C466.263 37.537 466.327 36.9848 466.5 36.4625C465.992 36.7875 465.445 36.97 464.943 36.97H464.518C463.4 38.6 462.2 39.715 461.343 40.2275C461.051 40.3825 460.729 40.4713 460.4 40.4875C460.23 40.4875 459.972 40.4 459.888 40.2275C459.65 39.8475 459.498 39.2475 459.405 38.56C458.202 39.8775 456.542 40.5725 455.772 40.5725C454.915 40.5725 454.403 40.0575 454.318 39.1975V38.2575C454.572 36.3725 455.26 35.2575 455.26 34.915C455.258 34.8698 455.239 34.827 455.207 34.7947C455.175 34.7625 455.133 34.743 455.087 34.74C454.487 34.74 452.517 36.8 452.173 38.1725L451.915 39.285C451.745 40.0575 450.972 40.5725 450.46 40.5725C450.202 40.5725 450.03 40.485 449.945 40.1425V39.8L450.06 39.2175C448.972 39.9925 447.885 40.4875 447.373 40.4875C446.603 40.4875 446.173 40.0575 446.088 39.4575C445.573 40.1425 444.975 40.4875 444.202 40.4875C443.322 40.4875 442.462 39.8875 442.048 39.005C441.438 39.6925 440.74 40.3875 439.917 40.915C438.717 41.6875 437.347 42.2875 435.717 42.2875C434.262 42.2875 432.975 41.515 432.29 40.83C431.26 39.8875 430.663 38.43 430.575 37.0575C430.062 32.8575 432.632 27.4575 436.575 25.0575C437.52 24.545 438.462 24.2 439.405 24.2ZM463.83 32.4275C463.57 32.4275 463.4 32.8575 463.4 33.285C463.4 33.97 463.743 34.7425 464.173 35.1725C464.34 34.7048 464.426 34.2118 464.428 33.715C464.428 32.8575 464.088 32.4275 463.83 32.4275Z" fill="black"/>
</g>
<path d="M600.26 30.8846C599.669 30.8855 599.088 30.975 598.573 31.1446C598.058 31.3142 597.627 31.5581 597.32 31.8529L594.62 34.5216C594.05 35.0758 594.8 35.6854 595.795 35.6854H605.16L603.48 37.3421C603.36 37.4658 603.185 37.5686 602.974 37.6399C602.763 37.7111 602.524 37.7483 602.28 37.7475H600.83C600.733 37.7481 600.637 37.7341 600.552 37.7068C600.467 37.6796 600.396 37.64 600.344 37.592C600.293 37.5439 600.264 37.489 600.26 37.4324C600.255 37.3759 600.276 37.3196 600.32 37.2691C600.495 37.0883 600.88 36.715 600.88 36.715H592.385L591.155 37.9341C590.58 38.5 591.345 39.1154 592.315 39.1154H608.185C608.788 39.1165 609.382 39.0256 609.906 38.8516C610.431 38.6777 610.868 38.4267 611.175 38.1237C611.775 37.5229 613.2 36.1112 613.81 35.5104C614.425 34.9125 613.65 34.3146 612.67 34.3146H603.305L605.04 32.6054C605.167 32.4945 605.338 32.4037 605.54 32.3411C605.742 32.2785 605.967 32.246 606.195 32.2466H607.655C608.13 32.2466 608.33 32.5441 608.18 32.6987C608.03 32.8533 607.595 33.2791 607.595 33.2791H616.075L617.345 32.025C617.815 31.5583 617.23 30.8816 616.145 30.8816H600.245L600.26 30.8846ZM593.54 30.8846H577.685C576.535 30.8846 575.335 31.2346 574.725 31.8441C574.105 32.4479 569.075 37.4179 568.525 37.9575C567.98 38.4971 568.735 39.1154 569.705 39.1154H585.59C586.865 39.1154 587.99 38.7041 588.55 38.1529C589.105 37.6046 594.2 32.5675 594.735 32.0454C595.265 31.5204 594.585 30.8787 593.535 30.8787V30.8846H593.54ZM585.55 32.7396C585.325 32.9612 581.1 37.1291 580.87 37.3625C580.748 37.4814 580.575 37.5799 580.368 37.6483C580.161 37.7168 579.928 37.753 579.69 37.7533H578.215C577.745 37.7533 577.525 37.4558 577.705 37.2779L582.405 32.6346C582.529 32.5178 582.702 32.4216 582.907 32.3552C583.113 32.2888 583.345 32.2544 583.58 32.2554H585.06C585.485 32.2554 585.775 32.5208 585.545 32.7425L585.55 32.7396ZM570.955 30.8846H553.05L546.1 37.7504H530V39.1212H562.99C563.59 39.1231 564.18 39.0337 564.703 38.8619C565.225 38.69 565.662 38.4416 565.97 38.1412L568.02 36.1083C568.445 35.6854 568 35.1429 567.2 35.0029C567.784 34.9969 568.357 34.906 568.866 34.7385C569.375 34.5709 569.804 34.332 570.115 34.0433C570.69 33.4804 571.605 32.5675 572.125 32.0541C572.244 31.9353 572.306 31.8003 572.306 31.6627C572.306 31.5252 572.243 31.3902 572.124 31.2715C572.005 31.1527 571.834 31.0546 571.629 30.9872C571.423 30.9197 571.191 30.8853 570.955 30.8875V30.8846ZM561.45 36.1725L560.235 37.3712C560.116 37.4896 559.946 37.5875 559.741 37.6551C559.537 37.7227 559.305 37.7576 559.07 37.7562H554.57L556.665 35.6912H560.95C561.049 35.6889 561.147 35.7022 561.234 35.7297C561.321 35.7572 561.394 35.7979 561.444 35.8475C561.495 35.897 561.522 35.9537 561.522 36.0114C561.522 36.0691 561.495 36.1257 561.445 36.1754L561.45 36.1725ZM564.92 32.7366L563.71 33.9325C563.591 34.0505 563.42 34.148 563.216 34.2151C563.011 34.2822 562.78 34.3165 562.545 34.3146H558.045L560.135 32.2496H564.425C564.875 32.2496 565.125 32.5208 564.915 32.7366H564.92ZM620.89 30.8846L612.555 39.1183H632.765L634.145 37.7504H622.42L624.51 35.6883H636.235L637.625 34.3175H625.9L627.99 32.2496H650V30.8846H620.89Z" fill="black"/>
<g clip-path="url(#clip1_2_157)">
<path d="M817.981 45.2492C817.981 51.2686 804.643 54.1587 797.586 47.1672C797.08 46.6626 785.961 35.4912 785.961 35.4912V45.2495C785.961 51.2686 772.629 54.1587 765.572 47.1672C765.06 46.6626 753.946 35.4912 753.946 35.4912V44.6924C753.946 48.8685 749.697 51.1303 743.051 51.1303H725.649C718.316 51.1303 711.284 49.431 706.098 46.4063C700.913 43.3815 698 39.2791 698 35.0015C698 30.7238 700.913 26.6214 706.098 23.5966C711.284 20.5719 718.316 18.8726 725.649 18.8726H734.623V22.7459H725.649C722.89 22.7459 720.159 23.0629 717.61 23.6788C715.061 24.2947 712.744 25.1975 710.794 26.3355C708.843 27.4735 707.295 28.8246 706.239 30.3115C705.183 31.7984 704.64 33.392 704.64 35.0015C704.64 36.6109 705.183 38.2045 706.239 39.6915C707.295 41.1784 708.843 42.5294 710.794 43.6674C712.744 44.8055 715.061 45.7082 717.61 46.3241C720.159 46.94 722.89 47.257 725.649 47.257H742.896C744.054 47.2437 745.158 46.9697 745.978 46.4924C746.797 46.0152 747.269 45.3715 747.293 44.6962V24.8617C747.277 24.6847 747.364 24.5098 747.539 24.3652C747.715 24.2206 747.969 24.115 748.261 24.0654C748.966 23.9534 749.709 24.2075 750.255 24.7459L761.015 35.562C767.271 41.8542 771.38 45.9856 771.43 46.0305C772.834 47.4136 774.924 47.6569 776.417 47.4174C777.27 47.278 778.02 46.9766 778.547 46.5609C779.074 46.1452 779.348 45.6389 779.327 45.122V24.8658C779.309 24.6892 779.394 24.5144 779.567 24.3692C779.74 24.2241 779.992 24.1171 780.282 24.0654C780.98 23.9534 781.717 24.2075 782.256 24.7459L792.229 34.7693L803.438 46.0416C804.534 47.1258 806.06 47.511 807.387 47.511C807.735 47.511 808.082 47.4834 808.418 47.4288C809.283 47.2932 810.044 46.992 810.58 46.5736C811.116 46.1552 811.395 45.6438 811.373 45.1217V18.8729H818L817.981 45.2492ZM738.013 40.7444V24.75C738.013 18.7305 751.35 15.8407 758.407 22.8358C758.919 23.3403 770.034 34.5083 770.034 34.5083V24.7497C770.034 18.7303 783.364 15.8404 790.421 22.8355C790.934 23.34 802.048 34.508 802.048 34.508V18.8723H808.7V45.122C808.717 45.2994 808.63 45.475 808.455 45.6202C808.279 45.7654 808.025 45.8717 807.733 45.922C807.028 46.034 806.284 45.78 805.739 45.2416C801.994 41.4902 798.26 37.7353 794.536 33.9768L784.563 23.961C783.166 22.5773 781.083 22.3344 779.602 22.5698C778.749 22.7089 778 23.0097 777.472 23.4246C776.944 23.8395 776.667 24.345 776.686 24.8617V45.122C776.702 45.2993 776.615 45.4745 776.439 45.6196C776.264 45.7646 776.01 45.8711 775.718 45.922C775.007 46.034 774.264 45.78 773.725 45.2416C773.629 45.1483 768.38 39.8729 763.31 34.7731C759.723 31.1644 756.134 27.5565 752.542 23.9493C751.146 22.5625 749.056 22.3233 747.562 22.5587C746.709 22.6978 745.959 22.9984 745.43 23.4132C744.901 23.8281 744.623 24.3337 744.64 24.8506V44.6845C744.611 44.9484 744.418 45.197 744.097 45.3836C743.776 45.5702 743.349 45.6819 742.896 45.6978H725.636C720.768 45.6978 716.099 44.5696 712.657 42.5616C709.214 40.5535 707.281 37.8299 707.281 34.9901C707.281 32.1502 709.214 29.4267 712.657 27.4186C716.099 25.4105 720.768 24.2824 725.636 24.2824H734.61V28.1558H725.713C722.606 28.1558 719.626 28.8758 717.429 30.1575C715.232 31.4392 713.998 33.1775 713.998 34.9901C713.998 36.8027 715.232 38.541 717.429 39.8227C719.626 41.1044 722.606 41.8244 725.713 41.8244H736.18C736.423 41.8255 736.664 41.7981 736.888 41.744C737.113 41.69 737.316 41.6102 737.487 41.5095C737.658 41.4088 737.792 41.2892 737.883 41.1577C737.973 41.0262 738.017 40.886 738.013 40.7444Z" fill="black"/>
</g>
<g clip-path="url(#clip2_2_157)">
<path d="M866.364 25.5941H881.942C895.337 25.5941 900.578 30.1802 900.578 35.0353C900.578 39.9753 893.857 44.3774 881.069 44.3774H866.388C866.121 44.3774 866.024 44.2782 866.024 44.1934C866.024 44.0942 866.194 44.0093 866.437 44.0093H869.178C870.028 44.0093 870.586 43.7121 870.586 43.16V26.8398C870.586 26.4294 870.247 25.9764 869.13 25.9764H866.34C866.122 25.9764 866 25.8916 866 25.7924C866 25.7075 866.049 25.5941 866.364 25.5941ZM876.094 43.5001C876.094 43.9104 876.41 44.0379 876.871 44.0379H880.996C891.163 44.0379 894.851 39.4943 894.851 34.9364C894.851 30.3786 890.944 25.9621 882.355 25.9621H876.75C876.167 25.9621 876.118 26.2453 876.118 26.3725L876.094 43.5001ZM902.131 25.5941C901.889 25.5941 901.67 25.6506 901.67 25.7638C901.67 25.877 901.792 25.9479 902.009 25.9479H904.751C905.382 25.9479 905.989 26.2028 905.989 26.9104V43.1743C905.989 43.5141 905.552 44.0236 904.775 44.0236H902.058C901.743 44.0236 901.719 44.1651 901.719 44.2216C901.719 44.2782 901.694 44.3774 902.058 44.3774H915.259C915.453 44.3774 915.72 44.3631 915.72 44.2499C915.72 44.1368 915.671 44.0236 915.332 44.0236H912.784C912.419 44.0236 911.424 43.8961 911.424 43.2451V26.7406C911.424 26.2733 911.934 25.9621 912.856 25.9621H915.356C915.574 25.9621 915.695 25.8913 915.695 25.7924C915.695 25.6932 915.573 25.6083 915.282 25.6083C915.28 25.5943 902.084 25.6352 902.131 25.5941ZM922.757 34.993C922.757 29.7981 926.736 25.5943 934.21 25.5943C941.537 25.5943 945.662 29.7984 945.662 34.993C945.662 40.1876 941.902 44.3917 934.21 44.3917C926.761 44.406 922.757 40.1876 922.757 34.993ZM934.21 44.7881C944.838 44.7881 951.535 40.4002 951.535 35.007C951.535 29.6138 944.911 25.212 934.21 25.212C923.534 25.212 916.884 29.5998 916.884 34.993C916.884 40.3862 923.8 44.7881 934.21 44.7881ZM985.507 44.2642C981.333 44.5191 979.027 40.5274 976.917 38.6307C975.34 37.2292 971.99 35.7998 968.69 35.5166C974.126 35.3325 980.216 34.3134 980.216 30.7181C980.216 27.8023 977.135 25.5941 965.827 25.5941H952.797C952.627 25.5941 952.457 25.6506 952.457 25.7638C952.457 25.877 952.627 25.9479 952.797 25.9479H955.781C956.412 25.9479 957.018 26.2028 957.018 26.9104V43.1743C957.018 43.5141 956.582 44.0236 955.805 44.0236H952.87C952.628 44.0236 952.531 44.1368 952.531 44.1934C952.531 44.2499 952.628 44.3774 952.87 44.3774H966.701C966.895 44.3774 967.065 44.3208 967.065 44.2076C967.065 44.0945 966.944 44.0236 966.677 44.0236H963.886C963.522 44.0236 962.527 43.8821 962.527 43.2451V35.5591H963.959C970.802 35.5591 971.311 39.8904 974.708 42.3675C977.62 44.4909 981.43 44.7598 983.59 44.7598C984.512 44.7598 985.143 44.7455 985.725 44.6606C986.089 44.5897 986.162 44.2219 985.507 44.2642ZM963.91 25.9481H965.924C969.37 25.9481 974.951 26.7409 974.951 30.5343C974.951 34.0165 970.001 35.1914 965.415 35.1914H962.479V26.7406C962.479 26.2593 962.989 25.9481 963.91 25.9481Z" fill="black"/>
</g>
<defs>
<clipPath id="clip0_2_157">
<rect width="60" height="60" fill="white" transform="translate(422 5)"/>
</clipPath>
<clipPath id="clip1_2_157">
<rect width="120" height="70" fill="white" transform="translate(698)"/>
</clipPath>
<clipPath id="clip2_2_157">
<rect width="120" height="70" fill="white" transform="translate(866)"/>
</clipPath>
</defs>
</svg>
