<svg width="1240" height="70" viewBox="0 0 1240 70" fill="none" xmlns="http://www.w3.org/2000/svg">
<path d="M228.235 28.8238V37.3806C228.235 37.7716 228.778 38.0885 229.449 38.0885H231.765V28.8238H240.588V43.8455C240.588 45.2139 238.687 46.3232 236.341 46.3232H219.715V42.7209H231.765V41.1768H223.659C221.313 41.1768 219.412 40.0675 219.412 38.6991V28.8238H228.235ZM186.929 28.8238C189.275 28.8238 191.176 29.9332 191.176 31.3015V41.1768H174.247C171.902 41.1768 170 40.0675 170 38.6991V35.9339C170 34.5655 171.902 33.4562 174.247 33.4562H178.824V37.3806C178.824 37.7716 179.367 38.0885 180.037 38.0885H182.353V32.62C182.353 32.229 181.81 31.9121 181.139 31.9121L170.303 31.912V28.8238H186.929ZM215.882 23.6768V41.1768H198.953C196.608 41.1768 194.706 40.0675 194.706 38.6991V31.3015C194.706 29.9331 196.608 28.8238 198.953 28.8238H203.529V37.3806C203.529 37.7716 204.073 38.0885 204.743 38.0885H207.059L207.059 23.6768H215.882ZM261.047 28.8238C262.173 28.8238 263.254 29.0849 264.05 29.5495C264.847 30.0142 265.294 30.6444 265.294 31.3015V34.0667C265.294 35.4351 263.393 36.5444 261.047 36.5444H256.471V32.62C256.471 32.2291 255.927 31.9121 255.257 31.9121H252.941V37.3806C252.941 37.7716 253.485 38.0885 254.155 38.0885H264.991V41.1768H248.365C246.019 41.1768 244.118 40.0675 244.118 38.6991V28.8238H261.047ZM285.752 28.8238C288.098 28.8238 290 29.9332 290 31.3015V41.1768H281.176V32.62C281.174 32.2295 280.632 31.9132 279.963 31.9121H277.647V41.1768H268.824V28.8238L285.752 28.8238Z" fill="black"/>
<path d="M347.4 25.9875L338 41.6617H342.925L344.275 39.5675H350.535L351.88 41.6617H356.805L347.4 25.9875ZM363.52 27.0346L360.835 29.9046H371.585V41.6587H376.5V29.9046H384.11L393.52 44.0125L402.475 29.9046H425.31L422.625 27.0346H398.9L393.53 35.3908L387.7 27.0346H363.52ZM444.57 30.4267V41.3992H449.5V36.9571L458 41.9212V30.9546H453.52V34.8687L444.57 30.4267ZM364.87 30.6892C359.495 30.6892 355.465 33.0429 355.465 36.1754C355.465 39.3108 359.495 41.6587 364.865 41.6587C367.105 41.6587 369.34 41.1367 370.685 40.355L368 37.7417C367.1 38.2667 366.21 38.5292 364.865 38.5292C363.678 38.5276 362.541 38.2517 361.702 37.7618C360.863 37.272 360.391 36.6082 360.39 35.9158C360.39 34.6092 362.18 33.3025 364.865 33.3025C365.765 33.3025 367.105 33.5621 367.55 34.0842L370.685 31.9987C369.335 31.2142 367.105 30.6921 364.865 30.6921L364.87 30.6892ZM402.48 30.6892V41.3992H407.405V30.6921L402.48 30.6892ZM413.22 30.6892C411.43 30.6892 409.2 31.2142 409.2 33.3025C409.2 35.9158 414.57 37.4821 414.125 38.5292C413.675 39.0512 412.775 39.0483 412.33 39.0483H409.2V41.3992H414.57C416.81 41.3992 419.045 40.6146 419.045 39.0483C419.045 36.1754 412.78 34.3496 414.125 33.3025C414.125 33.04 415.015 33.04 415.015 33.04H418.155V30.6921L413.22 30.6892ZM419.495 30.6892V41.3992H424.415V30.6921L419.495 30.6892ZM434.72 30.6892C429.345 30.6892 425.32 33.0429 425.32 36.1754C425.32 39.0483 429.345 41.6587 434.72 41.6587C440.09 41.6587 444.12 39.3108 444.12 36.1754C444.12 33.0429 440.09 30.6892 434.72 30.6892ZM379.64 30.9517V41.6617H384.57V30.9517H379.64ZM434.72 33.565C436.96 33.565 439.195 34.6092 439.195 36.1754C439.194 36.8678 438.722 37.5316 437.883 38.0214C437.044 38.5113 435.907 38.7872 434.72 38.7887C432.03 38.7887 429.795 37.7446 430.24 36.1754C430.24 34.8687 432.03 33.565 434.72 33.565ZM347.4 34.0842L348.75 36.6975H346.05L347.4 34.0842Z" fill="black"/>
<path d="M614.798 25.2962H602.423L595.366 37.2111C595.682 36.2218 595.738 35.4308 595.738 35.0869C595.738 30.0953 590.835 25.2962 579.316 25.2962H566.087L566.126 37.1481C564.982 33.7805 559.708 32.8784 553.15 31.7155C550.699 31.2751 549.353 30.5757 549.844 29.9238C550.264 29.3545 551.766 29.176 553.591 29.323C556.373 29.5552 558.595 30.0979 560.735 30.7772L563.658 26.551C562.999 26.3614 558.262 24.7027 552.325 24.7027C544.047 24.7027 538.76 27.0588 538.76 30.5357C538.76 33.6338 542.031 35.4352 548.046 36.4449C554.515 37.5395 556.155 37.9799 555.96 39.0652C555.792 40.0006 551.783 41.1399 541.973 37.6192L539.059 41.1372L530.062 25.2968H517.691L506 44.9878H515.751L517.639 41.8087H529.077L531.02 44.9884H541.257L540.096 43.0625C543.556 44.2292 547.847 45.2973 552.982 45.2973C560.846 45.2973 565.097 42.7919 566.111 40.3906V44.9884H579.301C587.165 44.9884 591.278 42.8015 593.427 40.4606L590.729 44.9884H600.473L602.423 41.8089H614.037L615.75 44.9881H626L614.798 25.2962ZM519.818 37.361L523.454 30.5955L526.898 37.361H519.818ZM575.914 39.9102V30.3718H578.24C581.554 30.3718 585.173 31.1547 585.173 35.1412C585.173 38.6718 581.977 39.9102 578.268 39.9102H575.914ZM604.779 37.361L608.247 30.676L611.859 37.361H604.779Z" fill="black"/>
<g clip-path="url(#clip0_2_126)">
<path d="M674.113 43.7791C674.292 43.61 674.58 43.5983 674.983 43.7471C684.073 46.8241 693.967 48.3641 704.657 48.3641C711.787 48.3641 718.827 47.5868 725.775 46.0381L726.562 45.8339C726.907 45.7464 727.148 45.6881 727.295 45.6443C727.86 45.516 728.27 45.5773 728.608 45.8339C728.908 46.0877 728.833 46.3239 728.307 46.5339C727.667 46.811 726.807 47.1318 725.792 47.4877C722.682 48.5712 719.192 49.4068 715.33 50.0048C706.283 51.4305 696.692 51.1357 687.952 49.1633C682.962 48.0228 678.364 46.368 674.377 44.2779C674.127 44.17 674 44.0591 674 43.9571C674 43.8885 674.052 43.8258 674.127 43.7675L674.113 43.7791ZM690.525 34.7112C690.525 33.2456 691.142 31.9943 692.382 30.9531C693.62 29.9177 695.307 29.1302 697.482 28.5979C699.472 28.1093 701.873 27.7593 704.763 27.5479C705.738 27.4808 707.345 27.3977 709.562 27.2941V26.7546C709.562 25.3983 709.3 24.4825 708.812 24.0202C708.057 23.3931 706.862 23.0723 705.212 23.0723H704.758C703.558 23.1393 702.517 23.3581 701.642 23.7431C700.767 24.1368 700.205 24.6618 699.955 25.3414C699.805 25.7789 699.44 26.0196 698.867 26.0852L692.568 25.6258C691.948 25.5383 691.637 25.3633 691.637 25.0571C691.637 24.99 691.655 24.9258 691.693 24.8383C692.31 22.9571 693.83 21.5571 696.243 20.6383C698.683 19.74 701.493 19.2164 704.717 19.1071H706.067C710.192 19.1071 713.46 19.74 715.787 20.9883C716.125 21.2071 716.463 21.4258 716.8 21.6883C717.1 21.9289 717.36 22.1462 717.507 22.3446C717.695 22.54 717.882 22.8258 717.995 23.1758C718.145 23.5462 718.257 23.7883 718.333 23.9196C718.408 24.0712 718.487 24.3571 718.522 24.8164C718.548 25.2729 718.573 25.5354 718.573 25.6229V33.3229C718.573 33.8712 718.722 34.3729 718.985 34.8337C719.247 35.2902 719.51 35.6212 719.772 35.8166L721.048 36.7996C721.272 36.9979 721.388 37.1729 721.388 37.3246C721.388 37.4996 721.237 37.6541 720.938 37.7825C717.938 39.3137 716.288 40.145 716.03 40.2762C715.618 40.4731 715.092 40.495 714.455 40.3418C713.992 40.1162 713.553 39.8747 713.14 39.6185L712.365 39.1125C712.091 38.9127 711.827 38.7084 711.573 38.5L710.823 37.8656C708.798 39.1577 706.815 39.9656 704.823 40.2937C703.588 40.5125 702.09 40.6248 700.247 40.6248C697.472 40.6248 695.147 40.1246 693.347 39.1168C691.547 38.1106 690.647 36.6887 690.647 34.8293L690.523 34.7185L690.525 34.7112ZM699.907 34.0725C699.907 34.8979 700.257 35.56 700.97 36.0616C701.683 36.5575 702.657 36.8083 703.858 36.8083C703.97 36.8083 704.122 36.7981 704.345 36.7791C704.57 36.7558 704.68 36.7456 704.76 36.7456C706.295 36.5123 707.46 35.9391 708.32 35.0277C708.732 34.6193 709.033 34.1818 709.22 33.7006C709.445 33.2339 709.52 32.8402 709.557 32.5339C709.595 32.2496 709.595 31.7464 709.595 31.0683V30.2808C707.495 30.2808 705.885 30.3683 704.795 30.5433C701.608 31.0683 699.995 32.2496 699.995 34.0871L699.907 34.0579V34.0725ZM722.812 44.3202C722.888 44.2327 723 44.1598 723.142 44.0723C724.048 43.7179 724.928 43.4743 725.768 43.3431C727.087 43.1476 728.437 43.0304 729.798 42.9931C730.147 42.9756 730.498 42.9931 730.823 43.0368C732.447 43.1243 733.447 43.2818 733.752 43.5181C733.91 43.6493 734 43.8506 734 44.0869V44.3056C734 45.0494 733.628 45.9243 732.94 46.9306C732.245 47.9368 731.28 48.7506 730.05 49.3806C729.868 49.4681 729.7 49.5119 729.557 49.5119C729.482 49.5119 729.407 49.5118 729.332 49.4943C729.107 49.4302 729.065 49.3193 729.173 49.1443C730.522 47.3068 731.188 46.0191 731.188 45.2943C731.188 45.0756 731.112 44.9006 730.97 44.7927C730.608 44.5506 729.595 44.4179 727.91 44.4179C727.302 44.4179 726.577 44.4412 725.735 44.485C724.827 44.5506 723.985 44.6162 723.235 44.6818C723.01 44.6818 722.865 44.6614 722.785 44.6177C722.71 44.5739 722.695 44.5491 722.735 44.5054C722.735 44.4806 722.75 44.4616 722.785 44.4135V44.326L722.812 44.3202Z" fill="black"/>
</g>
<g clip-path="url(#clip1_2_126)">
<path d="M901.715 27.3117C901.29 26.9821 900.865 26.7342 898.74 26.6525C898.175 26.6525 896.475 26.5679 893.5 26.5679C885.7 26.5679 880.32 27.9738 877.625 30.7008C878.335 27.9738 873.8 26.5679 863.88 26.5679C852.26 26.5679 844.89 29.295 841.915 34.8338C840.785 36.9017 840.785 38.5554 841.635 39.8796H838.8C836.675 39.9583 833.84 40.0429 832 40.0429C827.75 40.0429 825.05 39.6288 824.06 38.8033C823.21 38.0596 823.21 36.6538 824.345 34.5858C826.185 31.1967 830.58 29.7092 837.665 29.7092C841.35 29.7092 844.89 29.9571 844.89 29.9571C845.315 29.9571 845.6 29.6275 845.6 29.3796L845.46 29.1317L845.175 27.9738C845.035 27.23 844.04 26.8158 842.34 26.6525C840.785 26.5679 839.505 26.5679 837.805 26.5679H837.665C828.455 26.5679 821.935 28.3879 818.395 31.8588C819.67 28.3033 815.415 26.5679 805.64 26.5679C800.115 26.5679 796.14 26.6525 793.875 26.8158C792.035 26.9821 790.9 27.3963 790.475 28.14L789.625 29.6275C789.485 29.8754 789.77 30.0417 790.335 30.0417C790.76 30.0417 792.46 29.8754 795.295 29.7908C798.076 29.6534 800.864 29.5707 803.655 29.5429C809.04 29.5429 811.45 30.3713 810.6 31.9404C810.455 32.2729 810.03 32.5208 809.325 32.6025C804.225 33.0983 800.115 33.4308 797.135 33.6788C788.635 34.3379 783.675 35.8254 782.4 38.3075C780.555 41.6967 785.09 43.3475 796 43.3475C801.39 43.3475 806.065 43.1842 809.75 42.77C811.875 42.5221 813.01 42.2742 813.435 41.4488L815.415 37.6454C815.275 41.4488 819.665 43.3475 829.02 43.3475C832.99 43.3475 836.815 43.2659 838.655 43.0996C840.5 42.9363 841.49 42.6883 841.915 41.86L842.34 40.705C844.325 42.5221 848.72 43.4321 855.38 43.4321C862.465 43.4321 866.575 43.3475 867.705 43.0996C868.115 43.0459 868.497 42.9355 868.818 42.7776C869.139 42.6197 869.39 42.419 869.55 42.1925L869.69 41.9446L870.54 40.3725C870.685 40.1246 870.4 39.9583 869.83 39.9583L865.3 40.1246C862.32 40.2092 859.915 40.2908 858.21 40.2908C854.955 40.2908 852.83 40.1246 851.55 39.8767C849.71 39.4625 848.86 38.7188 849 37.4792L863.315 36.4058C869.69 35.91 874.085 34.7521 876.21 32.935L871.25 42.6038C871.11 42.77 871.25 42.9363 871.39 43.0179C871.535 43.0996 871.815 43.1842 872.385 43.1842H878.335C879.325 43.1842 879.75 42.8517 879.895 42.6038L885.135 31.9404C885.845 30.5375 887.97 29.8754 891.935 29.8754C895.485 29.8754 898.035 29.8754 899.735 29.9571H899.875C900.16 29.9571 900.725 29.8754 901.15 29.4613L902 27.9738C902 27.7258 902 27.4779 901.715 27.3117ZM806.205 40.0458C804.365 40.2121 801.67 40.2938 798.27 40.2938C792.175 40.2938 789.625 39.55 790.335 38.1442C790.9 37.1525 792.46 36.4904 795.01 36.3242L808.76 35.2508L806.205 40.0458ZM869.55 31.4417C868.98 32.5179 866.29 33.2617 861.47 33.6758L849.995 34.5829L850.275 34.0054C851.27 32.1854 852.545 31.0304 854.245 30.3683C855.945 29.7063 858.78 29.3767 862.745 29.3767C867.995 29.4583 870.265 30.1204 869.55 31.4417Z" fill="black"/>
</g>
<path d="M1069.52 31.465V27.7725H1046.24C1041.38 27.7725 1039.19 29.5225 1038.83 31.22V31.2725V27.7725H1031.99V31.465H1038.8H1069.52ZM1038.8 32.795L1031.96 32.5675V36.82C1031.96 38.15 1030.82 38.5525 1026.86 38.5525H1021.4C1018.13 38.5525 1016.75 38.01 1016.75 36.82V32.165L1009.82 31.8675V37.1525H1009.67C1009.28 35.6125 1008.29 33.8275 1001.69 33.565L980 32.725C980 34.6675 982.37 35.8225 986.09 36.05L1001.21 36.9425C1002.41 36.995 1003.28 37.205 1003.28 37.7825C1003.28 38.4125 1002.38 38.4825 1001 38.4825H979.73V32.725L972.8 32.4625V42.2275H1001.03C1007.33 42.2275 1009.34 40.32 1009.64 38.7275H1009.79C1010.57 41.2475 1014.35 42.2275 1020.74 42.2275H1027.79C1035.26 42.2275 1038.8 40.8975 1038.8 37.7825V32.795ZM1060.79 33.5475L1039.1 32.795C1039.1 34.7375 1041.29 36.0325 1045.01 36.2075L1060.46 36.9075C1061.66 36.96 1062.38 37.135 1062.38 37.7125C1062.38 38.255 1061.54 38.465 1059.8 38.465H1038.74V42.2275H1060.25C1067.03 42.2275 1070 40.845 1070 37.695C1070 34.86 1067.33 33.7925 1060.79 33.5475ZM1009.82 27.7725H1016.75V31.465H1009.82V27.7725ZM968.99 32.2875L961.46 31.85L950 42.2275H958.43L968.99 32.2875ZM1008.56 27.7725H987.41C982.49 27.7725 980.33 29.5575 979.82 31.2725V27.7725H968.09C966.44 27.7725 965.66 28.07 964.88 28.735L961.64 31.465H1008.56V27.7725Z" fill="black"/>
<defs>
<clipPath id="clip0_2_126">
<rect width="60" height="35" fill="white" transform="translate(674 17.5)"/>
</clipPath>
<clipPath id="clip1_2_126">
<rect width="120" height="70" fill="white" transform="translate(782)"/>
</clipPath>
</defs>
</svg>
